<?xml version="1.0" encoding="UTF-8" standalone="no"?>
<!-- Created with Inkscape (http://www.inkscape.org/) -->

<svg
   xmlns:dc="http://purl.org/dc/elements/1.1/"
   xmlns:cc="http://creativecommons.org/ns#"
   xmlns:rdf="http://www.w3.org/1999/02/22-rdf-syntax-ns#"
   xmlns:svg="http://www.w3.org/2000/svg"
   xmlns="http://www.w3.org/2000/svg"
   xmlns:sodipodi="http://sodipodi.sourceforge.net/DTD/sodipodi-0.dtd"
   xmlns:inkscape="http://www.inkscape.org/namespaces/inkscape"
   width="100"
   height="100"
   id="svg2"
   version="1.1"
   inkscape:version="0.48.5 r10040"
   sodipodi:docname="BBC_Sport_2017.svg">
  <defs
     id="defs4" />
  <sodipodi:namedview
     id="base"
     pagecolor="#ffffff"
     bordercolor="#666666"
     borderopacity="1.0"
     inkscape:pageopacity="0.0"
     inkscape:pageshadow="2"
     inkscape:zoom="0.80859375"
     inkscape:cx="349.9697"
     inkscape:cy="63.333372"
     inkscape:document-units="px"
     inkscape:current-layer="layer1"
     showgrid="false"
     fit-margin-left="0.5"
     fit-margin-bottom="0.5"
     fit-margin-top="0.5"
     fit-margin-right="0.5"
     inkscape:window-width="1019"
     inkscape:window-height="1025"
     inkscape:window-x="895"
     inkscape:window-y="-7"
     inkscape:window-maximized="0">
    <inkscape:grid
       type="xygrid"
       id="grid3025"
       empspacing="5"
       visible="true"
       enabled="true"
       snapvisiblegridlinesonly="true"
       originx="-389.5px"
       originy="-170.5px" />
  </sodipodi:namedview>
  <metadata
     id="metadata7">
    <rdf:RDF>
      <cc:Work
         rdf:about="">
        <dc:format>image/svg+xml</dc:format>
        <dc:type
           rdf:resource="http://purl.org/dc/dcmitype/StillImage" />
        <dc:title />
      </cc:Work>
    </rdf:RDF>
  </metadata>
  <g
     inkscape:label="Layer 1"
     inkscape:groupmode="layer"
     id="layer1"
     transform="translate(-389.5,-781.86218)">
    <rect
       style="fill:#ffd22f;fill-opacity:1;fill-rule:evenodd;stroke:none"
       id="rect3082"
       width="99"
       height="99"
       x="390"
       y="782.36218" />
    <g
       id="g5338"
       transform="matrix(0.13316907,0,0,0.13316907,415.40537,689.80816)">
      <g
         id="g5340"
         style="fill:#000000"
         transform="matrix(0.82302261,0,0,-0.82302261,189.63913,997.27701)">
        <path
           inkscape:connector-curvature="0"
           id="path5342"
           d="m 0,0 c 0,-11.25 -14,-10.583 -14,-10.583 l -14,0 0,20.333 14,0 C 0.417,9.833 0,0 0,0 m -28,40.75 10.667,0 c 11.083,-0.584 10.666,-8.833 10.666,-8.833 0,-10.25 -12.25,-10.417 -12.25,-10.417 l -9.083,0 0,19.25 z M -2.583,17.5 c 0,0 9.583,4.083 9.5,14.917 0,0 1.457,17.749 -22.063,19.916 l -26.104,0 0,-74.416 29.917,0 c 0,0 25,-0.084 25,21 0,0 0.583,14.333 -16.25,18.583 m -67.545,49.4156 109.878,0 0,-103.544 -109.878,0 0,103.544 z"
           style="fill:#000000;fill-rule:nonzero" />
      </g>
      <g
         id="g5344"
         style="fill:#000000"
         transform="matrix(0.82302261,0,0,-0.82302261,85.355129,997.27701)">
        <path
           inkscape:connector-curvature="0"
           id="path5346"
           style="fill:#000000;fill-rule:nonzero"
           d="m 0,0 c 0,-11.25 -14,-10.583 -14,-10.583 l -14,0 0,20.333 14,0 C 0.417,9.833 0,0 0,0 m -28,40.75 10.667,0 c 11.083,-0.584 10.666,-8.833 10.666,-8.833 0,-10.25 -12.25,-10.417 -12.25,-10.417 l -9.083,0 0,19.25 z M -2.583,17.5 c 0,0 9.583,4.083 9.5,14.917 0,0 1.457,17.749 -22.063,19.916 l -26.104,0 0,-74.416 29.917,0 c 0,0 25,-0.084 25,21 0,0 0.583,14.333 -16.25,18.583 m -67.545,49.4156 109.878,0 0,-103.544 -109.878,0 0,103.544 z" />
      </g>
      <g
         id="g5348"
         style="fill:#000000"
         transform="matrix(0.82302261,0,0,-0.82302261,308.1885,958.5961)">
        <path
           inkscape:connector-curvature="0"
           id="path5350"
           style="fill:#000000;fill-rule:nonzero"
           d="m 0,0 0,-13.75 c 0,0 -13.417,8.25 -28.25,8.417 0,0 -27.666,0.54 -28.916,-26.522 0,0 -1,-24.895 28.583,-26.312 0,0 12.417,-1.5 29.25,9.25 l 0,-14.25 c 0,0 -22.583,-13.416 -48.75,-3.083 0,0 -22,8.04 -22.834,34.395 0,0 -0.917,27.105 28.417,36.105 0,0 7.834,3 21.917,1.667 0,0 8.416,-0.834 20.583,-5.917 m -87.461,-83.627 109.878,0 0,103.544 -109.878,0 0,-103.544 z" />
      </g>
    </g>
    <g
       transform="matrix(0.52126162,0,0,0.52126162,342.67318,503.34396)"
       style="font-size:40px;font-style:normal;font-weight:normal;line-height:125%;letter-spacing:0px;word-spacing:0px;fill:#000000;fill-opacity:1;stroke:none;font-family:Sans"
       id="flowRoot3036">
      <path
         d="m 128.74486,661.49454 c 2.47995,10e-6 4.59992,-0.35332 6.35991,-1.05999 1.75997,-0.70667 3.10662,-1.73333 4.03995,-3.08 0.9333,-1.34665 1.39996,-2.96663 1.39998,-4.85993 -2e-5,-1.43997 -0.24669,-2.65329 -0.73999,-3.63996 -0.49333,-0.98664 -1.18664,-1.79997 -2.07993,-2.43996 -0.89333,-0.63999 -1.92663,-1.16665 -3.09992,-1.57998 -1.17333,-0.4133 -2.43998,-0.7933 -3.79995,-1.13999 -1.06668,-0.26665 -1.99335,-0.53998 -2.78,-0.81999 -0.78668,-0.27998 -1.39336,-0.63997 -1.82002,-1.07998 -0.42668,-0.43997 -0.64001,-1.0333 -0.63999,-1.77998 0,-1.03997 0.44666,-1.83996 1.33998,-2.39997 0.8933,-0.55997 2.15328,-0.83997 3.77995,-0.83999 1.49329,2e-5 2.97994,0.20002 4.45994,0.59999 1.47997,0.40002 2.80662,0.96001 3.97995,1.67998 l 0,-5.43993 c -1.17332,-0.58664 -2.4933,-1.05332 -3.95995,-1.40002 -1.46667,-0.34664 -2.95998,-0.51997 -4.47994,-0.51999 -2.31998,2e-5 -4.31995,0.35335 -5.99992,1.05998 -1.67998,0.7067 -2.97997,1.71337 -3.89995,3.02 -0.91999,1.30669 -1.37999,2.86667 -1.37998,4.67994 -1e-5,1.28 0.21332,2.37999 0.63999,3.29996 0.42667,0.92001 1.05334,1.70667 1.88001,2.35997 0.82666,0.65333 1.83998,1.21999 3.03996,1.69998 1.19999,0.48001 2.58663,0.90667 4.15995,1.27998 0.95998,0.24001 1.82664,0.50001 2.59997,0.77999 0.77329,0.28 1.39328,0.65333 1.85997,1.11999 0.46665,0.46668 0.69998,1.11335 0.69999,1.94001 -1e-5,1.09331 -0.47333,1.94662 -1.41998,2.55993 -0.94668,0.61332 -2.32666,0.91998 -4.13994,0.91999 -3.19998,-10e-6 -6.2266,-0.86666 -9.07989,-2.59997 l 0,5.51993 c 1.4133,0.74667 2.8866,1.29334 4.41991,1.64002 1.5333,0.34667 3.08661,0.52 4.65994,0.51999 z"
         style="font-variant:normal;font-weight:bold;font-stretch:normal;font-family:BBCReithSansWBd;-inkscape-font-specification:BBCReithSansWBd Bold"
         id="path3045"
         inkscape:connector-curvature="0" />
      <path
         d="m 145.27434,660.89455 6.07992,0 0,-9.75988 4.15994,0 c 2.45328,10e-6 4.53325,-0.36665 6.23992,-1.09998 1.70664,-0.73331 3.00662,-1.79996 3.89995,-3.19996 0.89329,-1.39997 1.33995,-3.09994 1.33999,-5.09993 -3e-5,-3.03994 -0.98669,-5.37324 -2.95997,-6.99991 -1.97332,-1.62663 -4.79994,-2.43995 -8.47989,-2.43997 l -10.27986,0 z m 6.07992,-14.59981 0,-9.15989 3.87995,0 c 1.78664,2e-5 3.1533,0.37335 4.09998,1.11999 0.94665,0.74669 1.41997,1.90668 1.41999,3.47996 -2e-5,1.57331 -0.47334,2.72662 -1.41999,3.45991 -0.94668,0.73333 -2.32666,1.09999 -4.13994,1.09999 z"
         style="font-variant:normal;font-weight:bold;font-stretch:normal;font-family:BBCReithSansWBd;-inkscape-font-specification:BBCReithSansWBd Bold"
         id="path3047"
         inkscape:connector-curvature="0" />
      <path
         d="m 184.52417,631.69492 c -2.15998,4e-5 -4.11329,0.3467 -5.85993,1.03999 -1.74666,0.69334 -3.23997,1.68665 -4.47994,2.97992 -1.23998,1.29333 -2.1933,2.85331 -2.85996,4.67994 -0.66667,1.82668 -1,3.88665 -0.99999,6.17992 -1e-5,2.26666 0.33332,4.31996 0.99999,6.15992 0.66666,1.83998 1.61998,3.41329 2.85996,4.71994 1.23997,1.30667 2.73328,2.30665 4.47994,2.99996 1.74664,0.69332 3.69995,1.03998 5.85993,1.03999 2.15995,-10e-6 4.11325,-0.34667 5.85992,-1.03999 1.74663,-0.69331 3.23994,-1.69329 4.47995,-2.99996 1.23994,-1.30665 2.19326,-2.87996 2.85996,-4.71994 0.66663,-1.83996 0.99996,-3.89326 0.99999,-6.15992 -3e-5,-2.29327 -0.33336,-4.35324 -0.99999,-6.17992 -0.66669,-1.82663 -1.62001,-3.38661 -2.85996,-4.67994 -1.24001,-1.29327 -2.73332,-2.28658 -4.47995,-2.97992 -1.74667,-0.69329 -3.69997,-1.03995 -5.85992,-1.03999 z m 0,24.43969 c -1.62667,0 -3.02665,-0.37999 -4.19995,-1.13999 -1.17331,-0.75999 -2.06662,-1.84664 -2.67992,-3.25995 -0.61333,-1.4133 -0.91999,-3.13327 -0.91999,-5.15994 0,-2.02663 0.30666,-3.74661 0.91999,-5.15993 0.6133,-1.41328 1.50661,-2.49327 2.67992,-3.23996 1.1733,-0.74664 2.57328,-1.11997 4.19995,-1.11998 1.62664,1e-5 3.02662,0.37334 4.19994,1.11998 1.17329,0.74669 2.0666,1.82668 2.67993,3.23996 0.6133,1.41332 0.91996,3.1333 0.91999,5.15993 -3e-5,2.02667 -0.30669,3.74664 -0.91999,5.15994 -0.61333,1.41331 -1.50664,2.49996 -2.67993,3.25995 -1.17332,0.76 -2.5733,1.13999 -4.19994,1.13999 z"
         style="font-variant:normal;font-weight:bold;font-stretch:normal;font-family:BBCReithSansWBd;-inkscape-font-specification:BBCReithSansWBd Bold"
         id="path3049"
         inkscape:connector-curvature="0" />
      <path
         d="m 209.71363,650.49468 4.31995,0 0.59999,0 c 2.05328,3.41329 4.03992,6.87991 5.95992,10.39987 l 7.07991,0 c -1.17333,-1.99997 -2.34663,-3.95327 -3.51991,-5.85993 -1.17334,-1.90664 -2.35999,-3.80662 -3.55996,-5.69992 1.65328,-0.71999 2.92658,-1.74664 3.81991,-3.07996 0.89329,-1.33329 1.33995,-2.94659 1.33999,-4.8399 -4e-5,-2.93326 -1.00669,-5.18655 -3.01997,-6.75988 -2.01332,-1.57327 -4.89994,-2.35993 -8.65988,-2.35996 l -10.43987,0 0,28.59963 6.07992,0 z m 0,-4.83986 0,-8.51989 4.03995,0 c 1.89328,3e-5 3.32658,0.3467 4.29991,1.03999 0.97329,0.69333 1.45995,1.77332 1.45998,3.23996 -2e-5,1.46667 -0.49334,2.53999 -1.47998,3.21996 -0.98669,0.68 -2.42667,1.02 -4.31995,1.01998 z"
         style="font-variant:normal;font-weight:bold;font-stretch:normal;font-family:BBCReithSansWBd;-inkscape-font-specification:BBCReithSansWBd Bold"
         id="path3051"
         inkscape:connector-curvature="0" />
      <path
         d="m 227.69569,632.29492 0,5.35993 8.99988,0 0,23.2397 6.15992,0 0,-23.2397 8.99989,0 0,-5.35993 z"
         style="font-variant:normal;font-weight:bold;font-stretch:normal;font-family:BBCReithSansWBd;-inkscape-font-specification:BBCReithSansWBd Bold"
         id="path3053"
         inkscape:connector-curvature="0" />
    </g>
  </g>
</svg>
